G04 EasyPC Gerber Version 21.0.3 Build 4286 *
%FSLAX35Y35*%
%MOIN*%
%ADD71R,0.06506X0.06506*%
%ADD21R,0.07096X0.07096*%
%ADD23C,0.05400*%
%ADD25C,0.06200*%
%ADD20C,0.06506*%
%ADD22C,0.07096*%
X0Y0D02*
D02*
D71*
X225250Y15250D03*
D02*
D20*
X35250D03*
Y25250D03*
X45250Y15250D03*
Y25250D03*
X55250Y15250D03*
Y25250D03*
X65250Y15250D03*
Y25250D03*
X75250Y15250D03*
Y25250D03*
X85250Y15250D03*
Y25250D03*
X95250Y15250D03*
Y25250D03*
X105250Y15250D03*
Y25250D03*
X115250Y15250D03*
Y25250D03*
X125250Y15250D03*
Y25250D03*
X135250Y15250D03*
Y25250D03*
X145250Y15250D03*
Y25250D03*
X155250Y15250D03*
Y25250D03*
X165250Y15250D03*
Y25250D03*
X175250Y15250D03*
Y25250D03*
X185250Y15250D03*
Y25250D03*
X195250Y15250D03*
Y25250D03*
X205250Y15250D03*
Y25250D03*
X215250Y15250D03*
Y25250D03*
X225250D03*
D02*
D21*
X15250Y65250D03*
X105250D03*
X195250D03*
D02*
D22*
X15250Y75250D03*
X25250Y65250D03*
Y75250D03*
X35250Y65250D03*
Y75250D03*
X45250Y65250D03*
Y75250D03*
X55250Y65250D03*
Y75250D03*
X65250Y65250D03*
Y75250D03*
X105250D03*
X115250Y65250D03*
Y75250D03*
X125250Y65250D03*
Y75250D03*
X135250Y65250D03*
Y75250D03*
X145250Y65250D03*
Y75250D03*
X155250Y65250D03*
Y75250D03*
X195250D03*
X205250Y65250D03*
Y75250D03*
X215250Y65250D03*
Y75250D03*
X225250Y65250D03*
Y75250D03*
X235250Y65250D03*
Y75250D03*
X245250Y65250D03*
Y75250D03*
D02*
D23*
X40250Y45250D03*
X55250Y65250D03*
X60250Y20250D03*
X65250Y35250D03*
X70250Y45250D03*
X80250Y50250D03*
X95250D03*
X107750D03*
X125250Y55250D03*
X130250Y45250D03*
X135250Y37750D03*
Y55250D03*
X145250Y42750D03*
Y55250D03*
X150250Y20250D03*
Y37750D03*
X155250Y42750D03*
Y55250D03*
X170250Y70250D03*
X175250Y55250D03*
X180250Y75250D03*
X200250Y55250D03*
X210250Y20250D03*
X240250Y15250D03*
D02*
D25*
X75250Y55250D03*
X85250Y70250D03*
X0Y0D02*
M02*
